<svg width="64" height="64" viewBox="0 0 64 64" fill="none" xmlns="http://www.w3.org/2000/svg">
<g clip-path="url(#clip0_714_5883)">
<path fill-rule="evenodd" clip-rule="evenodd" d="M64 0C45.9675 16.783 18.0325 16.783 0 0C16.783 18.0325 16.783 45.9675 0 64C4.76393 59.5662 10.219 56.3037 16 54.2126V54C16 45.1634 23.1634 38 32 38C40.8366 38 48 45.1634 48 54V54.2126C53.781 56.3037 59.2361 59.5662 64 64C47.217 45.9675 47.217 18.0325 64 0ZM40 26C40 30.4183 36.4183 34 32 34C27.5817 34 24 30.4183 24 26C24 21.5817 27.5817 18 32 18C36.4183 18 40 21.5817 40 26Z" fill="#262626"/>
</g>
<defs>
<clipPath id="clip0_714_5883">
<rect width="64" height="64" fill="white"/>
</clipPath>
</defs>
</svg>
