<?xml version="1.0" encoding="UTF-8"?>
<svg id="Layer_2" xmlns="http://www.w3.org/2000/svg" viewBox="0 0 1306.6366911 248.5742995">
  <defs>
    <style>
      .cls-1 {
        fill: none;
        stroke: #fff;
        stroke-linecap: round;
        stroke-miterlimit: 10;
        stroke-width: 4px;
      }
    </style>
  </defs>
  <g id="Layer_2-2" data-name="Layer_2">
    <path class="cls-1" d="M19.6096508,183.5473296c-32.66335,87.7660656-20.5768728,81.9704314,42.0363205-5.5434904,27.8493653-38.9248183,48.6284541-63.4508358,65.1217494-79.9835466,67.840762-68.0028872,120.6356981-81.610156,91.5018691-15.112771-10.5181378,24.0074403-50.4540099,82.7611539-61.7637545,106.5855323-15.6094201,32.8817976-26.6167887,50.7495023-27.5008342,51.6447669,30.5672502-35.153258,117.7926355-179.7982817,179.7731963-180.9748607,24.8249548-.4712529,3.7475989,36.4994475-.626294,49.3025637-23.9424786,58.7455668-94.9070477,149.899568-11.4927285,124.5736089"/>
    <path class="cls-1" d="M548.4535366,122.1835981c-.2113814,1.2827082-11.0262577,42.4336725-13.0630123,57.7953198-1.0711255,10.6694753-4.4467663,53.3452904,6.1030139,54.4422361"/>
    <path class="cls-1" d="M535.1728702,182.4980717c.0755163.0956511,39.5982647,50.2736537,97.5807044,51.3807795"/>
    <path class="cls-1" d="M537.9502093,185.2522136c1.3313635-1.3468711,39.8433513-38.9999093,59.3216317-47.6569228"/>
    <g>
      <path class="cls-1" d="M802.4844868,51.5185595c-.1309965.3020478-83.0804603,173.1083453-67.9943638,195.05574"/>
      <path class="cls-1" d="M840.4559113,233.8712023c-234.123118-81.8641953-61.8312341-5.7486858,86.0653233-231.8712023"/>
    </g>
    <path class="cls-1" d="M929.1838802,180.2051742c-5.0511221-12.1040648-23.4105038-16.0395356-36.1068685-7.6697596-13.0156397,8.5802504-39.9599683,57.1385639-19.459319,65.8279936,28.8805586,6.4709276,68.5141931-40.5158083,74.0664054-58.2724515.1627117-1.0614979-.1074852-1.559063-.7589829-1.2994492-7.8111965,6.8827242-25.4908051,43.7749382-3.9966635,47.6493548,22.4513586,1.6177529,47.1747647-11.3790304,53.3922701-27.192472,1.9426537-3.2596055,9.6954428-25.3787969,7.0645445-19.8667937-5.8638235,15.0594864-11.0515244,30.3543809-16.4483481,45.4976192-1.9945601,5.7253939-3.6367426,16.1123507-1.7137305,14.0914157,13.7166869-15.2915995,48.2414851-63.0734843,59.1653505-70.1372206,13.0227725-5.8302033,4.1325622,36.1266015,55.7397447,21.1245278,16.6516134-4.8936599,26.2071274-10.9139044,27.8638478-22.6085233.7949435-4.2964797-2.3981348-8.0534439-7.9480416-5.724273-28.0898571,12.974081-65.5741019,71.3738963-32.8015563,77.6024528,27.0448554,2.4929726,58.3263753-38.0218455,77.1275941-57.5336926,47.5557263-49.3531866,10.1651371,17.8106046,2.7437899,43.4142524-3.195545,11.0246302-7.9737041,25.6297702,7.7700862,3.9502511,23.9226591-32.9419876,30.5357086-43.719648,46.9666859-56.9208648,16.3361091-13.1249964,27.0610097-15.1857719,28.5213277,1.091092.9389119,10.4652149-3.6605876,21.7775135-9.2220806,30.6922247-39.1689652,62.7853008,7.9267231,33.1099286,34.8678119,11.5907773"/>
    <path class="cls-1" d="M1295.2061959,189.3116646c7.0516992-11.5577203-1.6838906-22.7386698-11.0916535-23.836555-8.503709-.6216484-15.7608923,10.629439-9.0507434,21.7783414,5.992819,9.9570599,24.1433475,15.3396651,28.3968656,27.5573494,3.4703537,9.9681451-.9797752,19.3708369-10.1894241,24.4329511-7.2292547,3.9735839-21.1233684,3.8323135-24.137721-6.0961783-2.5757709-8.4839182,1.8170339-16.5431115,15.1315434-22.593922"/>
    <path class="cls-1" d="M383.0390212,176.9808924c-16.1955714-15.7438637-36.2672063-12.5940778-48.0872705,6.3856535-9.7348258,15.5657994-21.4658702,41.68567-7.3130279,51.6932756,25.2879665,10.2688598,61.2019504-34.0746234,69.5357801-52.7179122.9904255-2.2868927-.0691478-.6096219-1.5895925,4.96564-1.1665776,4.2503353-2.4991348,10.7733215-2.7927215,17.2931096-1.5853311,13.1445649,1.6669185,39.1270351,17.9535509,31.9821231,9.79455-4.020465,22.8909337-25.2740163,32.168281-35.770721,4.4142515-4.4580818,11.6637801-13.3899664,17.7851947-8.1930444,8.0951961,10.6866722-29.2493064,81.8088783,12.6086329,22.3504368,19.0191973-27.016424,30.4222781-45.1123732,54.27188-64.7713706"/>
  </g>
</svg>