<?xml version="1.0" encoding="UTF-8"?>
<svg fill="#645245" width="100pt" height="100pt" version="1.1" viewBox="0 0 100 100" xmlns="http://www.w3.org/2000/svg">
 <path d="m50 2.707c-10.312 0-18.75 8.543-18.75 18.957v7.8125l-14.582 0.003907c-1.7695 0-3.125 1.3555-3.125 3.125v48.957c0 8.6445 6.9805 15.625 15.625 15.625h41.668c8.6445 0 15.625-6.9805 15.625-15.625v-48.957c0-1.7695-1.3555-3.125-3.125-3.125h-14.586v-7.8125c0-10.418-8.4375-18.961-18.75-18.961zm-12.5 18.961c0-6.9805 5.625-12.707 12.5-12.707s12.5 5.7305 12.5 12.707v7.8125h-25z"/>
</svg>
