<svg width="47" height="13" viewBox="0 0 47 13" fill="none" xmlns="http://www.w3.org/2000/svg">
<path fill-rule="evenodd" clip-rule="evenodd" d="M5.80333 0.422852H2.17623C1.92802 0.422852 1.71694 0.60085 1.67823 0.842719L0.211266 10.0238C0.182097 10.2049 0.324232 10.3683 0.510386 10.3683H2.24199C2.4902 10.3683 2.70128 10.1903 2.74 9.94788L3.13564 7.4716C3.17383 7.22921 3.38544 7.05121 3.63311 7.05121H4.78133C7.17058 7.05121 8.5495 5.90993 8.90961 3.64829C9.0719 2.65883 8.91651 1.88139 8.44714 1.33693C7.93164 0.739061 7.01731 0.422852 5.80333 0.422852ZM6.22178 3.77603C6.02342 5.06077 5.02901 5.06077 4.06748 5.06077H3.52015L3.90413 2.66145C3.92693 2.51643 4.05422 2.40963 4.20272 2.40963H4.45357C5.10856 2.40963 5.72642 2.40963 6.0457 2.77819C6.2361 2.99808 6.29444 3.32475 6.22178 3.77603Z" fill="black"/>
<path fill-rule="evenodd" clip-rule="evenodd" d="M16.6454 3.73498H14.9084C14.7605 3.73498 14.6327 3.84178 14.6099 3.98679L14.533 4.46634L14.4115 4.29253C14.0355 3.75382 13.197 3.57373 12.3601 3.57373C10.4407 3.57373 8.80141 5.00871 8.48214 7.02167C8.31613 8.02579 8.55214 8.98594 9.12917 9.65553C9.65846 10.2712 10.4158 10.5277 11.3169 10.5277C12.8634 10.5277 13.721 9.54611 13.721 9.54611L13.6435 10.0225C13.6144 10.2047 13.7565 10.368 13.9416 10.368H15.5062C15.7549 10.368 15.9649 10.19 16.0042 9.94766L16.9429 4.07946C16.9726 3.89884 16.831 3.73498 16.6454 3.73498ZM14.2243 7.07193C14.0567 8.05145 13.2691 8.70899 12.2646 8.70899C11.7603 8.70899 11.3572 8.54932 11.0984 8.24672C10.8417 7.94622 10.7441 7.5185 10.8258 7.04209C10.9822 6.07095 11.7831 5.39194 12.7722 5.39194C13.2654 5.39194 13.6664 5.5537 13.9305 5.85892C14.1951 6.16728 14.3001 6.59761 14.2243 7.07193Z" fill="black"/>
<path fill-rule="evenodd" clip-rule="evenodd" d="M25.8958 3.73486H24.1504C23.9839 3.73486 23.8274 3.81653 23.733 3.95317L21.3258 7.45347L20.3054 4.08981C20.2412 3.87936 20.0444 3.73486 19.8217 3.73486H18.1065C17.8981 3.73486 17.7533 3.9359 17.8196 4.1296L19.7421 9.69887L17.9347 12.2176C17.7925 12.416 17.9357 12.6887 18.1813 12.6887H19.9246C20.09 12.6887 20.2449 12.6091 20.3388 12.4751L26.144 4.20342C26.283 4.00553 26.1403 3.73486 25.8958 3.73486Z" fill="black"/>
<path fill-rule="evenodd" clip-rule="evenodd" d="M31.6746 0.42334H28.047C27.7993 0.42334 27.5882 0.601339 27.5495 0.843208L26.0825 10.0243C26.0534 10.2054 26.1955 10.3688 26.3806 10.3688H28.2421C28.415 10.3688 28.563 10.2442 28.5901 10.0745L29.0064 7.47209C29.0446 7.2297 29.2562 7.0517 29.5039 7.0517H30.6515C33.0413 7.0517 34.4197 5.91041 34.7804 3.64878C34.9432 2.65932 34.7867 1.88188 34.3174 1.33742C33.8024 0.739549 32.8886 0.42334 31.6746 0.42334ZM32.0931 3.77652C31.8952 5.06125 30.9008 5.06125 29.9388 5.06125H29.392L29.7765 2.66194C29.7993 2.51692 29.9255 2.41012 30.0745 2.41012H30.3254C30.9798 2.41012 31.5982 2.41012 31.9175 2.77868C32.1079 2.99856 32.1657 3.32524 32.0931 3.77652Z" fill="black"/>
<path fill-rule="evenodd" clip-rule="evenodd" d="M42.516 3.73498H40.7802C40.6311 3.73498 40.5044 3.84178 40.4821 3.98679L40.4052 4.46634L40.2832 4.29253C39.9072 3.75382 39.0692 3.57373 38.2323 3.57373C36.313 3.57373 34.6742 5.00871 34.3549 7.02167C34.1894 8.02579 34.4244 8.98594 35.0014 9.65553C35.5318 10.2712 36.2881 10.5277 37.1891 10.5277C38.7356 10.5277 39.5932 9.54611 39.5932 9.54611L39.5158 10.0225C39.4866 10.2047 39.6288 10.368 39.8149 10.368H41.3789C41.6266 10.368 41.8377 10.19 41.8764 9.94766L42.8157 4.07946C42.8443 3.89884 42.7022 3.73498 42.516 3.73498ZM40.0949 7.07193C39.9284 8.05145 39.1398 8.70899 38.1353 8.70899C37.632 8.70899 37.2278 8.54932 36.969 8.24672C36.7123 7.94622 36.6158 7.5185 36.6964 7.04209C36.8539 6.07095 37.6537 5.39194 38.6428 5.39194C39.1361 5.39194 39.537 5.5537 39.8011 5.85892C40.0668 6.16728 40.1718 6.59761 40.0949 7.07193Z" fill="black"/>
<path fill-rule="evenodd" clip-rule="evenodd" d="M44.5638 0.675191L43.0751 10.0243C43.0459 10.2055 43.188 10.3688 43.3731 10.3688H44.8698C45.1185 10.3688 45.3296 10.1908 45.3678 9.9484L46.8358 0.767855C46.865 0.586715 46.7228 0.422852 46.5378 0.422852H44.8618C44.7139 0.423375 44.5866 0.530174 44.5638 0.675191Z" fill="black"/>
</svg>
