<svg width="47" height="16" viewBox="0 0 47 16" fill="none" xmlns="http://www.w3.org/2000/svg">
<path fill-rule="evenodd" clip-rule="evenodd" d="M23.0921 0.334194L20.0138 14.842H16.2908L19.3701 0.334194H23.0921ZM38.7536 9.70172L40.7132 4.25439L41.8412 9.70172H38.7536ZM42.9074 14.842H46.3504L43.3451 0.334194H40.1679C39.4532 0.334194 38.8506 0.752855 38.5832 1.39816L32.9976 14.842H36.9055L37.6821 12.6747H42.4576L42.9074 14.842ZM33.1911 10.1051C33.2077 6.27652 27.9395 6.06493 27.976 4.35438C27.9873 3.83422 28.4789 3.28117 29.5549 3.13946C30.0874 3.06936 31.5584 3.01496 33.2248 3.78821L33.8789 0.712215C32.9825 0.38408 31.8306 0.0688477 30.396 0.0688477C26.717 0.0688477 24.1269 2.04109 24.1062 4.86443C24.0817 6.95386 25.9545 8.11825 27.3655 8.81301C28.8152 9.52389 29.3015 9.98018 29.2962 10.6158C29.2853 11.5897 28.1393 12.0189 27.068 12.0359C25.1965 12.0651 24.1103 11.5258 23.2448 11.1192L22.5708 14.2984C23.4397 14.7007 25.0453 15.0516 26.7104 15.0688C30.6213 15.0688 33.1789 13.122 33.1911 10.1051ZM17.7727 0.334194L11.7415 14.842H7.80676L4.83855 3.26375C4.65832 2.55093 4.5022 2.28924 3.95429 1.98949C3.05937 1.49944 1.58177 1.04013 0.282043 0.755006L0.369701 0.334194H6.7041C7.51115 0.334194 8.23737 0.875422 8.42079 1.81316L9.98839 10.2088L13.8626 0.334194H17.7727Z" fill="black"/>
</svg>
