<?xml version="1.0" encoding="UTF-8"?><svg id="Layer_2" xmlns="http://www.w3.org/2000/svg" viewBox="0 0 608.056474 304.9109626"><defs><style>.cls-1{stroke-miterlimit:10;}.cls-1,.cls-2{fill:none;stroke:#231f20;stroke-linecap:round;stroke-width:12px;}.cls-2{stroke-linejoin:round;}</style></defs><path class="cls-2" d="M60.0550996,203.0366248c-32.66335,87.7660656-20.5768728,81.9704314,42.0363205-5.5434904,27.8493653-38.9248183,48.6284541-63.4508358,65.1217494-79.9835466,67.840762-68.0028872,120.6356981-81.610156,91.5018691-15.112771-10.5181378,24.0074403-50.4540099,82.7611539-61.7637545,106.5855323-15.6094201,32.8817976-26.6167887,50.7495023-27.5008342,51.6447669,30.5672502-35.153258,117.7926355-179.7982817,179.7731963-180.9748607,24.8249548-.4712529,3.7475989,36.4994475-.626294,49.3025637-23.9424786,58.7455668-94.9070477,149.899568-11.4927285,124.5736089"/><path class="cls-1" d="M450.4291196,73.0078546c-.1309965.3020478-83.0804603,173.1083453-67.9943638,195.05574"/><path class="cls-1" d="M488.4005441,255.3604975c-234.123118-81.8641953-61.8312341-5.7486858,86.0653233-231.8712023"/></svg>