<svg width="48" height="20" viewBox="0 0 48 20" fill="none" xmlns="http://www.w3.org/2000/svg">
<path fill-rule="evenodd" clip-rule="evenodd" d="M47.5834 10.2304C47.5834 6.84672 45.9444 4.17676 42.8118 4.17676C39.666 4.17676 37.7627 6.84672 37.7627 10.204C37.7627 14.1825 40.0097 16.1916 43.2348 16.1916C44.8077 16.1916 45.9973 15.8347 46.8961 15.3324V12.6889C45.9973 13.1383 44.9663 13.4159 43.6577 13.4159C42.3756 13.4159 41.2389 12.9665 41.0935 11.4068H47.5569C47.5569 11.235 47.5834 10.5476 47.5834 10.2304ZM41.0539 8.97475C41.0539 7.48116 41.9659 6.85993 42.7986 6.85993C43.6049 6.85993 44.464 7.48116 44.464 8.97475H41.0539Z" fill="black"/>
<path fill-rule="evenodd" clip-rule="evenodd" d="M32.6607 4.17676C31.3654 4.17676 30.5327 4.78477 30.0701 5.20773L29.8982 4.38824H26.9904V19.8L30.2948 19.0994L30.308 15.3589C30.7838 15.7025 31.4843 16.1916 32.6475 16.1916C35.0134 16.1916 37.1679 14.2882 37.1679 10.0983C37.1547 6.26514 34.9738 4.17676 32.6607 4.17676ZM31.8677 13.2837C31.0878 13.2837 30.6252 13.0061 30.308 12.6625L30.2948 7.75873C30.6384 7.37542 31.1143 7.11107 31.8677 7.11107C33.0705 7.11107 33.9032 8.45927 33.9032 10.1908C33.9032 11.9619 33.0837 13.2837 31.8677 13.2837Z" fill="black"/>
<path fill-rule="evenodd" clip-rule="evenodd" d="M25.7611 2.68318V0L22.4435 0.700534V3.39693L25.7611 2.68318Z" fill="black"/>
<path d="M25.7611 4.40137H22.4435V15.9668H25.7611V4.40137Z" fill="black"/>
<path fill-rule="evenodd" clip-rule="evenodd" d="M18.888 5.37938L18.6765 4.40127H15.8215V15.9667H19.1259V8.12864C19.9058 7.11088 21.2275 7.29593 21.6373 7.44132V4.40127C21.2143 4.24266 19.6679 3.95187 18.888 5.37938Z" fill="black"/>
<path fill-rule="evenodd" clip-rule="evenodd" d="M12.2791 1.5332L9.05399 2.22052L9.04077 12.8078C9.04077 14.764 10.5079 16.2048 12.4641 16.2048C13.548 16.2048 14.341 16.0065 14.7772 15.7686V13.0854C14.3543 13.2572 12.2659 13.8652 12.2659 11.909V7.21678H14.7772V4.40143H12.2659L12.2791 1.5332Z" fill="black"/>
<path fill-rule="evenodd" clip-rule="evenodd" d="M3.34406 7.75873C3.34406 7.24324 3.76702 7.04498 4.46755 7.04498C5.47209 7.04498 6.74098 7.34899 7.74552 7.89091V4.78477C6.64846 4.34859 5.56462 4.17676 4.46755 4.17676C1.78438 4.17676 0 5.57783 0 7.91734C0 11.5654 5.02269 10.9838 5.02269 12.5567C5.02269 13.1647 4.49399 13.363 3.7538 13.363C2.65674 13.363 1.25567 12.9136 0.145394 12.3056V15.4514C1.37463 15.9801 2.61709 16.2048 3.7538 16.2048C6.50307 16.2048 8.39319 14.8434 8.39319 12.4774C8.37997 8.53857 3.34406 9.2391 3.34406 7.75873Z" fill="black"/>
</svg>
